<svg version="1.1" id="Layer_1" xmlns="http://www.w3.org/2000/svg" xmlns:xlink="http://www.w3.org/1999/xlink" x="0px" y="0px"
	 width="100%" viewBox="0 0 64 64" enable-background="new 0 0 64 64" xml:space="preserve">
<path fill="#000000" opacity="1.000000" stroke="none" 
	d="
M65.000000,22.000000 
	C65.000000,36.291409 65.000000,50.582821 65.000000,64.937119 
	C43.771141,64.937119 22.542059,64.937119 1.000000,64.937119 
	C1.000000,50.980656 1.000000,36.958984 1.301425,22.291412 
	C2.050412,21.769508 2.497974,21.893509 2.991919,22.474472 
	C3.036562,26.062922 2.650319,29.256804 3.145389,32.307674 
	C3.605077,35.140507 4.525799,38.563301 8.937752,36.471146 
	C10.849157,41.759041 12.460559,46.850033 18.086899,49.404877 
	C20.773052,51.833103 23.337925,53.946617 25.952953,56.430084 
	C28.425829,59.223293 30.310032,63.504353 34.505249,61.531479 
	C36.573322,60.558929 37.572948,57.314388 39.422997,55.054985 
	C42.561012,53.034149 45.332077,51.056255 48.420998,48.936775 
	C53.845768,46.083836 55.554501,41.123817 57.472240,36.219086 
	C62.934353,37.761562 62.584644,34.065044 62.900787,30.493225 
	C63.885242,27.431574 60.980774,23.839607 65.000000,22.000000 
z"/>
<path fill="#000000" opacity="1.000000" stroke="none" 
	d="
M1.000000,13.000000 
	C1.000000,9.020953 1.000000,5.041906 1.000017,1.056247 
	C22.333372,1.049635 43.666710,1.049635 65.000000,1.049635 
	C65.000000,4.746730 65.000000,8.394190 64.658768,12.687241 
	C63.099125,11.655517 61.900768,9.963201 60.658596,8.303677 
	C56.806061,3.156734 50.230232,2.553737 46.611740,7.015892 
	C39.299690,6.669444 32.350201,6.316699 25.397970,6.030489 
	C23.628342,5.957636 21.850014,6.096031 19.704887,6.084580 
	C17.901043,5.763841 16.467999,5.495884 14.613033,5.149043 
	C9.103826,4.089331 5.826975,6.368936 3.548432,10.757314 
	C3.062321,11.693543 1.868033,12.262073 1.000000,13.000000 
z"/>
<path fill="#965A50" opacity="1.000000" stroke="none" 
	d="
M46.973286,7.034301 
	C50.230232,2.553737 56.806061,3.156734 60.658596,8.303677 
	C61.900768,9.963201 63.099125,11.655517 64.658768,13.166416 
	C65.000000,15.700013 65.000000,18.400026 65.000000,21.550020 
	C60.980774,23.839607 63.885242,27.431574 62.614021,30.321003 
	C60.863979,27.848631 59.220181,25.202536 58.122650,22.346516 
	C56.884995,19.125849 56.243248,15.681602 55.152130,12.397792 
	C53.859085,8.506269 51.350010,6.252513 46.930931,7.045305 
	C46.931435,7.023257 46.973286,7.034301 46.973286,7.034301 
z"/>
<path fill="#844842" opacity="1.000000" stroke="none" 
	d="
M1.000000,13.449980 
	C1.868033,12.262073 3.062321,11.693543 3.548432,10.757314 
	C5.826975,6.368936 9.103826,4.089331 14.520275,5.459268 
	C11.764277,10.185760 8.696842,14.535937 5.581782,18.851740 
	C4.780014,19.962559 3.828344,20.965183 2.945537,22.017509 
	C2.497974,21.893509 2.050412,21.769508 1.301425,21.822754 
	C1.000000,19.299986 1.000000,16.599972 1.000000,13.449980 
z"/>
<path fill="#FFD591" opacity="1.000000" stroke="none" 
	d="
M20.075684,6.137363 
	C21.850014,6.096031 23.628342,5.957636 25.397970,6.030489 
	C32.350201,6.316699 39.299690,6.669444 46.611740,7.015892 
	C46.973286,7.034301 46.931435,7.023257 47.079353,7.356890 
	C48.825432,10.604716 50.925388,13.358772 51.917145,16.466486 
	C53.972572,22.907288 55.439156,29.536005 57.147861,36.087456 
	C55.554501,41.123817 53.845768,46.083836 48.155899,48.690910 
	C46.675743,43.962727 43.813671,41.828003 38.986237,41.629951 
	C37.056095,37.639107 33.706993,37.545979 30.546730,38.209984 
	C29.431473,38.444313 28.730358,40.649708 27.431915,41.966965 
	C20.211237,42.196178 19.061443,43.098873 17.965622,49.090164 
	C12.460559,46.850033 10.849157,41.759041 8.987497,36.068130 
	C9.977051,31.165945 11.507659,27.083181 11.857997,22.901537 
	C12.427491,16.104025 13.744885,9.975681 20.075684,6.137363 
M44.270184,25.975298 
	C43.618706,26.019951 42.967232,26.064602 41.600658,26.189381 
	C41.420238,27.768709 40.949760,29.391962 41.179531,30.909172 
	C41.297657,31.689165 42.664330,32.280075 43.466793,32.956432 
	C44.005962,32.315952 44.545132,31.675470 45.833153,30.952816 
	C47.280437,29.117437 48.263931,27.337414 44.270184,25.975298 
M22.105570,25.840437 
	C21.656750,25.906149 21.207932,25.971861 19.992558,26.157515 
	C20.046610,28.274586 20.100664,30.391657 20.154716,32.508728 
	C21.712883,32.013805 23.271048,31.518883 25.146326,30.381432 
	C26.258926,26.756804 25.776932,25.800619 22.105570,25.840437 
z"/>
<path fill="#D4AF91" opacity="1.000000" stroke="none" 
	d="
M18.086899,49.404877 
	C19.061443,43.098873 20.211237,42.196178 27.599758,42.283974 
	C33.276836,47.314949 34.668530,47.234322 39.168369,41.952351 
	C43.813671,41.828003 46.675743,43.962727 47.838043,48.832493 
	C45.332077,51.056255 42.561012,53.034149 39.158577,54.908638 
	C33.990532,51.918484 29.747841,51.989132 25.902798,56.060135 
	C23.337925,53.946617 20.773052,51.833103 18.086899,49.404877 
z"/>
<path fill="#965A50" opacity="1.000000" stroke="none" 
	d="
M19.704887,6.084580 
	C13.744885,9.975681 12.427491,16.104025 11.857997,22.901537 
	C11.507659,27.083181 9.977051,31.165945 8.926649,35.696121 
	C4.525799,38.563301 3.605077,35.140507 3.145389,32.307674 
	C2.650319,29.256804 3.036562,26.062922 2.991919,22.474472 
	C3.828344,20.965183 4.780014,19.962559 5.581782,18.851740 
	C8.696842,14.535937 11.764277,10.185760 14.942194,5.538152 
	C16.467999,5.495884 17.901043,5.763841 19.704887,6.084580 
z"/>
<path fill="#834742" opacity="1.000000" stroke="none" 
	d="
M57.472240,36.219086 
	C55.439156,29.536005 53.972572,22.907288 51.917145,16.466486 
	C50.925388,13.358772 48.825432,10.604716 47.078846,7.378938 
	C51.350010,6.252513 53.859085,8.506269 55.152130,12.397792 
	C56.243248,15.681602 56.884995,19.125849 58.122650,22.346516 
	C59.220181,25.202536 60.863979,27.848631 62.553402,30.759617 
	C62.584644,34.065044 62.934353,37.761562 57.472240,36.219086 
z"/>
<path fill="#FF8087" opacity="1.000000" stroke="none" 
	d="
M25.952953,56.430084 
	C29.747841,51.989132 33.990532,51.918484 38.791622,54.951576 
	C37.572948,57.314388 36.573322,60.558929 34.505249,61.531479 
	C30.310032,63.504353 28.425829,59.223293 25.952953,56.430084 
z"/>
<path fill="#5D5360" opacity="1.000000" stroke="none" 
	d="
M38.986237,41.629951 
	C34.668530,47.234322 33.276836,47.314949 28.007999,42.272186 
	C28.730358,40.649708 29.431473,38.444313 30.546730,38.209984 
	C33.706993,37.545979 37.056095,37.639107 38.986237,41.629951 
z"/>
<path fill="#4D414F" opacity="1.000000" stroke="none" 
	d="
M24.829212,31.023960 
	C23.271048,31.518883 21.712883,32.013805 20.154716,32.508728 
	C20.100664,30.391657 20.046610,28.274586 20.408623,26.446449 
	C21.207960,27.273636 21.591232,27.811892 21.987514,28.679577 
	C22.943419,29.680658 23.886316,30.352308 24.829212,31.023960 
z"/>
<path fill="#4C404F" opacity="1.000000" stroke="none" 
	d="
M45.084297,31.034988 
	C44.545132,31.675470 44.005962,32.315952 43.466793,32.956432 
	C42.664330,32.280075 41.297657,31.689165 41.179531,30.909172 
	C40.949760,29.391962 41.420238,27.768709 42.014168,26.523884 
	C42.944302,27.368010 43.460926,27.877634 43.973007,28.692459 
	C44.340405,29.676767 44.712353,30.355877 45.084297,31.034988 
z"/>
<path fill="#5E5460" opacity="1.000000" stroke="none" 
	d="
M24.987770,30.702694 
	C23.886316,30.352308 22.943419,29.680658 22.382843,28.469975 
	C22.760176,27.163288 22.755188,26.395636 22.750200,25.627981 
	C25.776932,25.800619 26.258926,26.756804 24.987770,30.702694 
z"/>
<path fill="#5C525F" opacity="1.000000" stroke="none" 
	d="
M45.458725,30.993900 
	C44.712353,30.355877 44.340405,29.676767 44.273415,28.499123 
	C44.800976,27.345375 45.023579,26.690166 45.246181,26.034958 
	C48.263931,27.337414 47.280437,29.117437 45.458725,30.993900 
z"/>
<path fill="#FEFEFE" opacity="1.000000" stroke="none" 
	d="
M22.427885,25.734209 
	C22.755188,26.395636 22.760176,27.163288 22.369835,28.140545 
	C21.591232,27.811892 21.207960,27.273636 20.791899,26.386477 
	C21.207932,25.971861 21.656750,25.906149 22.427885,25.734209 
z"/>
<path fill="#FEFEFE" opacity="1.000000" stroke="none" 
	d="
M44.758183,26.005127 
	C45.023579,26.690166 44.800976,27.345375 44.277962,28.193922 
	C43.460926,27.877634 42.944302,27.368010 42.371712,26.483820 
	C42.967232,26.064602 43.618706,26.019951 44.758183,26.005127 
z"/>
</svg>